<svg xmlns="http://www.w3.org/2000/svg" viewBox="0 0 70.36 70.36"><defs><style>.cls-1{fill:none;stroke:#000;stroke-linecap:round;stroke-linejoin:round;stroke-width:3px;}</style></defs><g id="Layer_2" data-name="Layer 2"><g id="Layer_2-2" data-name="Layer 2"><rect class="cls-1" x="10.4" y="10.4" width="49.56" height="49.56" rx="3.75"/><rect class="cls-1" x="17.47" y="17.47" width="35.42" height="35.42" rx="1.44"/><line class="cls-1" x1="16.75" y1="10.4" x2="16.75" y2="1.5"/><line class="cls-1" x1="25.96" y1="10.4" x2="25.96" y2="1.5"/><line class="cls-1" x1="35.18" y1="10.4" x2="35.18" y2="1.5"/><line class="cls-1" x1="44.39" y1="10.4" x2="44.39" y2="1.5"/><line class="cls-1" x1="53.61" y1="10.4" x2="53.61" y2="1.5"/><line class="cls-1" x1="16.75" y1="68.86" x2="16.75" y2="59.96"/><line class="cls-1" x1="25.96" y1="68.86" x2="25.96" y2="59.96"/><line class="cls-1" x1="35.18" y1="68.86" x2="35.18" y2="59.96"/><line class="cls-1" x1="44.39" y1="68.86" x2="44.39" y2="59.96"/><line class="cls-1" x1="53.61" y1="68.86" x2="53.61" y2="59.96"/><line class="cls-1" x1="59.96" y1="17.47" x2="68.86" y2="17.47"/><line class="cls-1" x1="59.96" y1="26.68" x2="68.86" y2="26.68"/><line class="cls-1" x1="59.96" y1="35.89" x2="68.86" y2="35.89"/><line class="cls-1" x1="59.96" y1="45.11" x2="68.86" y2="45.11"/><line class="cls-1" x1="59.96" y1="54.32" x2="68.86" y2="54.32"/><line class="cls-1" x1="1.5" y1="17.47" x2="10.4" y2="17.47"/><line class="cls-1" x1="1.5" y1="26.68" x2="10.4" y2="26.68"/><line class="cls-1" x1="1.5" y1="35.89" x2="10.4" y2="35.89"/><line class="cls-1" x1="1.5" y1="45.11" x2="10.4" y2="45.11"/><line class="cls-1" x1="1.5" y1="54.32" x2="10.4" y2="54.32"/></g></g></svg>